<svg xmlns="http://www.w3.org/2000/svg" width="575.29" height="52.81">
    <g transform="matrix(0.5136951862082827,0,0,0.5136951862082827,-0.0000018067090317793908,0.000002763202185556953)">
        <path d="m721.199987,30.30002l0,71l18.3,0l0,-92.5l-38.4,0l0,21.5l20.1,0zm42.2,0l0,71l-18,0l0,-92.5l38.4,0l0,21.5l-20.4,0zm33.5,-21.5l49.6,0l0,21.7l-26.3,0l0,15l26.3,0l0,16.6l-26.3,0l0,8.2c0,6.2 3.3,9.4 10,9.4l16.2,0l0,21.5l-16.6,0c-21.9,0 -33,-10.3 -33,-31l0,-61.4l0.1,0zm-682,90.3l0,-54.6c0,-12.3 3.3,-21.7 9.8,-28.9c6.6,-7 15.2,-10.7 25.8,-10.7c10.9,0 19.5,3.7 26,10.7c6.6,7 9.8,16.6 9.8,28.9l0,54.6l-23.2,0l0,-23.8l-25.2,0l0,23.8l-23,0zm35.7,-71.6c-8.2,0 -12.5,5.1 -12.5,15.6l0,10.5l25.2,0l0,-11.5c0,-4.3 -1,-8 -3.3,-10.7c-2.2,-2.7 -5.5,-3.9 -9.4,-3.9l0,0zm58.1,-20.7l58.5,0l0,18.9l-35.1,0l0,40.6c0,3.7 1,6.8 3.1,9c2.3,2.3 4.7,3.5 7.4,3.5c3.7,0 6.6,-1.2 8.4,-3.5c1.6,-2.1 2.3,-4.5 2.3,-7.8c0,-3.1 -1,-5.7 -2.9,-8c-2.1,-2.1 -4.3,-3.1 -7.2,-3.1l0,-21.9c9.6,0.8 17.4,3.7 23.4,9.4c6.8,6.4 10,14.6 10,24.2c0,9 -3.3,16.6 -9.8,23c-6.6,6.6 -14.4,9.6 -23.6,9.6c-10.5,0 -18.7,-3.3 -25,-9.8c-6.4,-6.6 -9.4,-15 -9.4,-24.8l0,-59.3l-0.1,0zm87.7,92.3l0,-59.5c0,-9.8 3.1,-18 9.2,-24.6c6.4,-6.6 14.6,-10 25.2,-10c9,0 16.8,3.3 23.4,9.6c6.8,6.6 10,14.2 10,23.2c0,9.6 -3.3,17.6 -10,24.2c-5.9,5.9 -13.7,9 -23.4,9.4l0,-21.9c2.9,0 5.3,-1 7.2,-3.1c2.1,-2.3 2.9,-4.7 2.9,-8c0,-3.3 -0.6,-5.7 -2.3,-7.8c-1.8,-2.3 -4.7,-3.5 -8.4,-3.5c-2.7,0 -5.1,1.2 -7.2,3.3c-2.3,2.3 -3.3,5.3 -3.3,9.2l0,59.5l-23.3,0zm82.3,-92.3l23.2,0l0,55.8c0,10.3 4.3,15.6 12.5,15.6c4.1,0 7.4,-1.4 9.4,-4.1c2.3,-2.7 3.3,-6.4 3.3,-11.5l0,-55.8l23.2,0l0,92.3l-23.2,0l0,-5.9c-1,2.1 -3.1,3.9 -5.9,5.3c-2.9,1.4 -6.2,2.3 -9.8,2.3c-8.6,0 -16.2,-3.5 -22.4,-10.3c-6.8,-7.4 -10.3,-17 -10.3,-29.1l0,-54.6zm100.1,-0.2l23.4,0l0,36.9l25.2,-36.9l25.4,0l-27.3,36.9c6.4,0 11.3,2.1 15.2,6.4c3.5,3.7 5.3,8.2 5.3,13.3l0,35.9l-23.2,0l0,-31.2c0,-3.1 -1,-5.7 -2.9,-8s-4.5,-3.3 -8,-3.3c-3.1,0 -5.3,1 -7.2,3.1c-1.8,2.3 -2.7,4.9 -2.7,8.2l0,31.2l-23.4,0l0,-92.5l0.2,0zm92.7,92.5l0,-54.6c0,-12.3 3.3,-21.7 9.8,-28.9c6.6,-7 15.2,-10.7 26,-10.7c10.7,0 19.3,3.7 25.8,10.7c6.6,7 10,16.6 10,28.9l0,54.6l-23.4,0l0,-23.8l-25.1,0l0,23.8l-23.1,0zm35.9,-71.6c-8.4,0 -12.7,5.1 -12.7,15.6l0,10.5l25.2,0l0,-11.5c0,-4.3 -1,-8 -3.3,-10.7c-2.3,-2.7 -5.3,-3.9 -9.2,-3.9l0,0zm327.7,71.6l-23.2,0l0,-55.8c0,-10.5 -4.3,-15.6 -12.7,-15.6s-12.5,5.1 -12.5,15.6l0,55.8l-23.2,0l0,-54.6c0,-12.1 3.3,-21.7 9.8,-28.7c6.6,-7.2 15.2,-10.7 25.8,-10.7s19.3,3.5 25.8,10.7c6.6,7 10,16.6 10,28.7l0,54.6l0.2,0zm97,-54.6l0,54.6l-23.2,0l0,-55.8c0,-10.5 -4.1,-15.6 -12.7,-15.6c-8.2,0 -12.5,5.1 -12.5,15.6l0,29.9c0,9.2 -1.6,15.6 -5.1,19.5c-3.9,4.3 -10.5,6.4 -19.9,6.4l-10.5,0l0,-18.3c4.3,0 7.4,-0.8 9.4,-2.7c1.8,-1.8 2.9,-5.1 2.9,-10l0,-23.6c0,-12.1 3.3,-21.7 9.8,-28.7c6.6,-7.2 15.2,-10.7 25.8,-10.7c10.7,0 19.3,3.5 25.8,10.7c6.9,7 10.2,16.6 10.2,28.7l0,0zm16.2,54.6l0,-54.6c0,-12.3 3.3,-21.7 9.8,-28.9c6.6,-7 15.2,-10.7 26,-10.7c10.7,0 19.3,3.7 25.8,10.7c6.6,7 10,16.6 10,28.9l0,54.6l-23.4,0l0,-23.8l-25.2,0l0,23.8l-23,0zm35.9,-71.6c-8.4,0 -12.7,5.1 -12.7,15.6l0,10.5l25.2,0l0,-11.5c0,-4.3 -1,-8 -3.3,-10.7c-2.2,-2.7 -5.3,-3.9 -9.2,-3.9l0,0zm-1022.8,-24c22.1,5.1 38.6,24.8 38.6,48c0,23.2 -16.4,42.7 -38.6,47.8l0,3.5l-22.8,0l0,-3.5c-22.1,-5.1 -38.6,-24.6 -38.6,-47.8c0,-23.2 16.4,-42.9 38.6,-48l0,-3.5l22.8,0l0,3.5zm0,20.9l0,53.9c10.9,-4.5 18.3,-14.8 18.3,-26.9c0,-12 -7.4,-22.5 -18.3,-27l0,0zm-22.8,53.9l0,-53.9c-10.7,4.5 -18.3,15 -18.3,27.1c0.1,12.1 7.7,22.3 18.3,26.8l0,0z" fill-rule="evenodd" clip-rule="evenodd"/>
    </g>
</svg>